<svg width="310" height="310" viewBox="0 0 310 310" fill="none" xmlns="http://www.w3.org/2000/svg">
<path d="M77.3825 68.3786C77.0099 71.546 46.0812 289.724 44.9633 297.549C44.218 305.468 48.2238 308.728 53.1613 309.66H95.5485C100.672 309.66 107.193 307.051 109.243 298.76C115.857 251.342 141.755 65.2112 142.221 62.6027C142.687 59.5285 143.432 57.5721 146.134 55.8021L228.579 0H5.65022C1.92387 0 0.619646 5.49637 3.78705 8.01165C5.09127 8.94324 49.0622 38.8472 69.0914 51.9827C77.103 57.1064 78.3141 61.1122 77.3825 68.3786Z" fill="url(#paint0_linear_22_17)"/>
<path d="M248.143 6.33483C248.646 6.01169 249.223 5.81955 249.819 5.77588C250.39 5.77777 250.956 5.87215 251.496 6.05536C251.496 6.05536 256.247 7.91854 258.576 8.85012L266.774 12.9491C271.577 15.6212 276.075 18.8073 280.189 22.4513C286.996 28.6341 292.726 35.9067 297.144 43.971C299.83 48.8296 302.015 53.9486 303.665 59.249C303.665 59.249 304.504 61.9506 305.156 64.6522C315.31 105.269 290.902 138.993 286.524 145.048C273.502 163.032 255.252 176.564 234.262 183.802L230.722 185.107C230.722 185.107 274.227 285.625 277.301 292.332C280.282 300.996 272.457 309.287 266.868 309.287H218.704C217.331 309.283 215.989 308.874 214.845 308.112C213.702 307.35 212.809 306.268 212.276 305.002C212.09 304.536 146.227 153.433 145.761 152.408C145.668 151.759 145.668 151.1 145.761 150.451C145.761 150.172 147.252 139.272 147.811 135.267C147.872 134.852 148.089 134.476 148.418 134.217C148.747 133.957 149.163 133.833 149.581 133.869C156.474 133.869 183.677 133.962 184.329 133.962C185.726 134.056 193.645 133.776 193.645 133.776C209.388 133.217 219.45 127.907 224.108 124.926C229.231 121.768 233.554 117.467 236.738 112.36C239.922 107.253 241.88 101.478 242.46 95.4877C243.214 90.4796 242.735 85.3629 241.062 80.5823C240.284 78.4189 239.252 76.3551 237.988 74.4339C234.726 69.5752 230.134 65.7588 224.76 63.4412C222.99 62.6959 221.22 62.1369 219.45 61.578C216.328 60.6265 213.156 59.849 209.948 59.249L171.752 58.9695L248.143 6.33483Z" fill="url(#paint1_linear_22_17)"/>
<defs>
<linearGradient id="paint0_linear_22_17" x1="-9.14961" y1="278.507" x2="155.136" y2="-43.9152" gradientUnits="userSpaceOnUse">
<stop stop-color="#18A4E9"/>
<stop offset="1" stop-color="#06E4AE"/>
</linearGradient>
<linearGradient id="paint1_linear_22_17" x1="136.414" y1="352.674" x2="300.699" y2="30.2519" gradientUnits="userSpaceOnUse">
<stop stop-color="#18A4E9"/>
<stop offset="1" stop-color="#06E4AE"/>
</linearGradient>
</defs>
</svg>
