<?xml version="1.0" encoding="utf-8"?>
<!-- Generator: Adobe Illustrator 24.1.2, SVG Export Plug-In . SVG Version: 6.00 Build 0)  -->
<svg version="1.1" id="Layer_1" xmlns="http://www.w3.org/2000/svg" xmlns:xlink="http://www.w3.org/1999/xlink" x="0px" y="0px"
	 viewBox="0 0 1969.8 341.4" style="enable-background:new 0 0 1969.8 341.4;" xml:space="preserve">
<style type="text/css">
	.st0{fill:url(#SVGID_1_);}
	.st1{fill:url(#SVGID_2_);}
	.st2{fill:#2E4865;}
</style>
<g id="Layer_11">
	<g id="Layer_4">
		
			<linearGradient id="SVGID_1_" gradientUnits="userSpaceOnUse" x1="-11.9684" y1="-797.2598" x2="164.3816" y2="-451.1599" gradientTransform="matrix(1 0 0 -1 0 -498.3)">
			<stop  offset="0" style="stop-color:#18A4E9"/>
			<stop  offset="1" style="stop-color:#06E4AE"/>
		</linearGradient>
		<path class="st0" d="M80.9,73.4c-0.4,3.4-33.6,237.6-34.8,246c-0.8,8.5,3.5,12,8.8,13h45.5c5.5,0,12.5-2.8,14.7-11.7
			C122.2,269.8,150,70,150.5,67.2c0.5-3.3,1.3-5.4,4.2-7.3L243.2,0H3.9c-4,0-5.4,5.9-2,8.6c1.4,1,48.6,33.1,70.1,47.2
			C80.6,61.3,81.9,65.6,80.9,73.4z"/>
		
			<linearGradient id="SVGID_2_" gradientUnits="userSpaceOnUse" x1="144.2845" y1="-876.8734" x2="320.6345" y2="-530.7735" gradientTransform="matrix(1 0 0 -1 0 -498.3)">
			<stop  offset="0" style="stop-color:#18A4E9"/>
			<stop  offset="1" style="stop-color:#06E4AE"/>
		</linearGradient>
		<path class="st1" d="M264.2,6.8c0.5-0.4,1.2-0.5,1.8-0.6c0.6,0,1.2,0.1,1.8,0.3c0,0,5.1,2,7.6,3l8.8,4.4c5.2,2.9,10,6.3,14.4,10.2
			c7.3,6.6,13.4,14.4,18.2,23.1c2.9,5.2,5.2,10.7,7,16.4c0,0,0.9,2.9,1.6,5.8c10.9,43.6-15.3,79.8-20,86.3
			c-14,19.3-33.5,33.8-56.1,41.6l-3.8,1.4c0,0,46.7,107.9,50,115.1c3.2,9.3-5.2,18.2-11.2,18.2h-51.7c-3,0-5.7-1.8-6.9-4.6
			c-0.2-0.5-70.9-162.7-71.4-163.8c-0.1-0.7-0.1-1.4,0-2.1c0-0.3,1.6-12,2.2-16.3c0.1-0.9,1-1.6,1.9-1.5c7.4,0,36.6,0.1,37.3,0.1
			c1.5,0.1,10-0.2,10-0.2c16.9-0.6,27.7-6.3,32.7-9.5c2.7-1.7,5.3-3.7,7.6-6c6.8-6.9,11-15.9,12.1-25.6c0.8-5.4,0.3-10.9-1.5-16
			c-0.8-2.3-2-4.6-3.3-6.6c-3.5-5.2-8.4-9.3-14.2-11.8c-1.9-0.8-3.8-1.4-5.7-2c-3.4-1-6.8-1.9-10.2-2.5l-41-0.3L264.2,6.8z"/>
		<path class="st2" d="M554.9,270.9c-7.9-8.5-11.8-18.9-11.8-31.1V122.3h-31.5l3-26.3h28.5V50.6l33.8-3.4V96h48.4v26.3h-48.4v96.8
			c0,12.8,0.8,21.5,2.3,26.3c1.3,4.6,5,8.1,9.6,9.2c4.9,1.4,13.8,2.1,26.8,2.1h8.6l-2.6,27h-30.4
			C574.8,283.6,562.8,279.4,554.9,270.9z"/>
		<path class="st2" d="M699.2,271.1c-13.6-8.2-24.5-20.1-31.5-34.3c-7.3-14.5-10.9-30.8-10.9-48.8c0-18,3.6-34.3,10.9-48.8
			c7-14.2,17.9-26.2,31.5-34.4c13.8-8.4,30-12.6,48.8-12.6c18.5,0,34.7,4.2,48.6,12.6c13.7,8.1,24.7,20.1,31.7,34.3
			c7.3,14.5,10.9,30.8,10.9,48.8s-3.6,34.3-10.9,48.8c-7,14.3-18.1,26.2-31.7,34.3c-13.9,8.4-30.1,12.6-48.6,12.6
			C729.2,283.7,712.9,279.5,699.2,271.1z M789.8,236.4c9.9-11.5,14.8-27.6,14.8-48.4s-4.9-36.9-14.9-48.4
			c-9.9-11.5-23.8-17.3-41.8-17.3s-32,5.7-41.8,17.3s-14.8,27.6-14.8,48.4s4.9,36.9,14.8,48.4c9.9,11.5,23.8,17.3,41.8,17.3
			C766,253.6,779.9,247.9,789.8,236.4L789.8,236.4z"/>
		<path class="st2" d="M1113.1,96h27.8l4.1,30.4c9.5-11.8,18.6-20.4,27.2-25.9c8.1-5.3,17.5-8.2,27.2-8.3c2.9,0,5.8,0.4,8.6,1.1
			l-3.4,37.2c-3.7-0.8-7.5-1.2-11.3-1.1c-9.1,0-18.1,2.1-26.3,6.2c-8.2,4.1-14.2,8.9-18,14.4v129.8h-36L1113.1,96z"/>
		<path class="st2" d="M1250.8,261.5c-12.8-14.8-19.1-33.9-19.1-57.4c-0.1-19.1,4.3-37.9,12.8-55c8.1-16.6,20.4-30.9,35.6-41.3
			c15.3-10.4,32.5-15.6,51.8-15.6c17.5,0,31,4.3,40.5,12.8s14.3,19.9,14.3,34.2c0,10.4-2.8,20.5-8.1,29.5
			c-5.4,9.4-14.4,17.1-27.2,23.3c-12.8,6.1-29.5,9.2-50.3,9.2c-6,0-12.2-0.3-18.6-0.9c-4.9-0.4-9.7-1.1-14.4-2.1
			c0,20.5,4.2,34.9,12.6,43.2s20.1,12.4,35.1,12.4c8.5-0.1,17-1,25.3-2.8c8.7-1.7,17.2-4.4,25.3-8.1l-1.5,26.6
			c-16.5,9.5-35.9,14.3-58.2,14.3C1282.2,283.6,1263.6,276.3,1250.8,261.5z M1342,167.7c9-7,13.5-15.1,13.5-24.4
			c0-7-2.5-12.3-7.5-15.8c-5-3.5-11.5-5.3-19.5-5.3c-12,0-22.9,4.3-32.6,12.9c-9.7,8.6-17.8,21.7-24,39.2c7.5,2.5,16.3,3.8,26.3,3.8
			C1318.4,178.2,1333,174.7,1342,167.7z"/>
		<path class="st2" d="M1718.8,171.5v108.4H1685V171.8c0-17.3-3.4-29.8-10.1-37.7c-6.8-7.9-17.8-11.8-33-11.8
			c-32.5,0-48.8,17-48.8,51v106.6h-33.8V178.6c0-21-3.7-35.6-11.1-43.9c-7.4-8.3-18.1-12.4-32.1-12.4c-11,0-20.8,2-29.3,6
			c-8.3,3.8-15.1,10.1-19.5,18v133.6h-33.8V96h26.3l3.8,19.5c9.3-8.3,18.6-14.2,27.9-17.8c9.6-3.7,19.9-5.5,30.2-5.4
			c28,0,47.8,12.3,59.3,36.8c12.8-24.5,35.1-36.8,67.1-36.8C1695.2,92.3,1718.8,118.7,1718.8,171.5z"/>
		<path class="st2" d="M1777.7,17.2h33.8v37.5h-33.8V17.2z M1777.7,96h33.8v183.9h-33.8V96z"/>
		<path class="st2" d="M1899.4,270.9c-7.9-8.5-11.8-18.9-11.8-31.1V122.3h-31.5l3-26.3h28.5V50.6l33.8-3.4V96h48.4v26.3h-48.4v96.8
			c0,12.8,0.8,21.5,2.3,26.3c1.3,4.6,5,8.1,9.6,9.2c4.9,1.4,13.8,2.1,26.8,2.1h8.6l-2.6,27h-30.4
			C1919.4,283.6,1907.3,279.4,1899.4,270.9z"/>
		<path class="st2" d="M922.8,341.3v-83.9c6,8.5,14.3,15,24.8,19.5c11.1,4.6,22.9,6.9,34.9,6.8c17.3,0,31.9-4.2,43.9-12.6
			s21.1-19.8,27.2-34.1c6.1-14.4,9.2-30.7,9.2-49c0-18-3.3-34.3-9.8-48.8s-15.8-26-28-34.3c-12.1-8.4-26.3-12.6-42.6-12.6
			c-26.8,0-47.9,9.8-63.4,29.3l-3.8-25.5H889v245.3L922.8,341.3L922.8,341.3z M936.5,139.2c10.4-11.3,23.6-16.9,39.6-16.9
			c16.3,0,29,5.8,38.3,17.4c9.3,11.6,13.9,27.7,13.9,48.2s-4.6,36.6-13.9,48.2c-9.3,11.6-22,17.4-38.3,17.5
			c-16.3,0-29.5-5.4-39.8-16.3s-15.4-27.3-15.4-49.4C921,166.7,926.1,150.5,936.5,139.2L936.5,139.2z"/>
	</g>
</g>
</svg>
